<svg height="512" viewBox="0 0 512 512" width="512" xmlns="http://www.w3.org/2000/svg"><g id="Layer_1" data-name="Layer 1"><path d="m260.857 371.389h-10v-99.446h10zm-45.427-45.864-6.36-7.718-106.07 87.393 6.359 7.719zm189.917 76.4-99.857-85.363-6.5 7.6 99.857 85.361zm13.285-294.925-5.824-8.129-132.008 94.582 5.824 8.129zm-199.322 79.8-114.517-84.226-5.924 8.055 114.517 84.223zm175.911 66.147h-56.865v10h56.865zm-221.863 0h-56.007v10h56.007zm87.5-127.016h-10v48.069h10z" fill="#393939"/><path d="m256 125.927h4.857v48.073h-4.857zm0 245.462h4.857v-99.446h-4.857zm156.808-272.514-132.008 94.578 5.824 8.129 132.008-94.582zm-113.816 225.289 99.857 85.361 6.5-7.6-99.859-85.363zm96.229-61.221v-10h-56.865v10z" fill="#141414"/><path d="m256 256 82.5-47.631v95.262l-82.5 47.63-82.5-47.63v-95.262z" fill="#8c8c8c"/><path d="m256 160.739 82.5 47.63-82.5 47.631-82.5-47.631z" fill="#68544f"/><path d="m256 160.739 82.5 47.63-82.5 47.631z" fill="#53433f"/><path d="m256 351.261v-95.261l82.5-47.631v95.262z" fill="#393939"/><path d="m496.505 82.071a58.483 58.483 0 1 1 -58.483-58.483 58.483 58.483 0 0 1 58.483 58.483zm-58.483 115.446a58.483 58.483 0 1 0 58.483 58.483 58.483 58.483 0 0 0 -58.483-58.483zm0 173.929a58.483 58.483 0 1 0 58.483 58.483 58.482 58.482 0 0 0 -58.483-58.483z" fill="#4da6ff"/><path d="m314.483 82.071a58.483 58.483 0 1 1 -58.483-58.483 58.483 58.483 0 0 1 58.483 58.483zm-58.483 289.375a58.483 58.483 0 1 0 58.483 58.483 58.483 58.483 0 0 0 -58.483-58.483zm-182.022-347.858a58.483 58.483 0 1 0 58.483 58.483 58.483 58.483 0 0 0 -58.483-58.483zm0 173.929a58.483 58.483 0 1 0 58.483 58.483 58.483 58.483 0 0 0 -58.483-58.483zm0 173.929a58.483 58.483 0 1 0 58.483 58.483 58.483 58.483 0 0 0 -58.483-58.483z" fill="#6cf"/><path d="m314.483 429.929a58.483 58.483 0 0 1 -58.483 58.483v-116.966a58.483 58.483 0 0 1 58.483 58.483zm-58.483-406.341v116.966a58.483 58.483 0 0 0 0-116.966z" fill="#4da6ff"/></g></svg>



     