<svg version="1.1" id="Layer_1" xmlns="http://www.w3.org/2000/svg" xmlns:xlink="http://www.w3.org/1999/xlink" x="0px" y="0px"
	 width="100%" height="20px" viewBox="0 0 1024 1024" enable-background="new 0 0 1024 1024" xml:space="preserve">
<path fill="black" opacity="1.000000" stroke="none" 
	d="
M141.401337,509.003601 
	C140.328384,510.790009 138.958588,511.362335 137.407059,511.448975 
	C130.423492,511.838898 123.364853,512.174622 116.562805,510.444763 
	C105.675224,507.675781 99.072433,499.162292 98.759033,487.892426 
	C98.527527,479.567108 98.689217,471.231445 98.631027,462.900696 
	C98.440231,435.583771 98.182106,408.267242 98.054817,380.950073 
	C98.017609,372.961975 98.399620,364.972717 98.449593,356.983124 
	C98.470268,353.678223 99.390945,351.597046 103.138550,351.371002 
	C130.196930,349.738678 154.596390,355.008972 168.485886,382.370789 
	C176.477539,398.114075 184.527817,413.827728 192.599442,429.530151 
	C193.936417,432.131042 195.518936,434.605774 197.086243,437.308258 
	C199.426254,435.339905 198.625290,433.203522 198.630554,431.374512 
	C198.698898,407.547150 198.668137,383.719543 198.691803,359.891998 
	C198.698746,352.896606 199.733353,351.911957 206.855438,351.825836 
	C209.354492,351.795624 211.854294,351.760162 214.353088,351.788025 
	C232.497543,351.990356 241.102905,360.440674 241.178894,378.493469 
	C241.290390,404.986389 241.225021,431.480072 241.222137,457.973450 
	C241.220474,473.302887 241.195480,488.632355 241.177048,503.961792 
	C241.169525,510.219238 239.380997,512.218445 233.251648,512.065857 
	C227.098419,511.912659 220.893448,511.798187 214.819427,510.918854 
	C201.293884,508.960785 191.170044,501.353912 183.689209,490.277679 
	C172.015228,472.993073 162.942902,454.196045 152.758728,436.045349 
	C149.765961,430.711517 146.815720,425.353760 143.599686,419.563507 
	C141.789932,421.687103 142.287964,423.539734 142.285690,425.217682 
	C142.250961,450.711426 142.261917,476.205200 142.241562,501.698975 
	C142.239700,504.017975 142.502365,506.375549 141.401337,509.003601 
z"/>
<path fill="black" opacity="1.000000" stroke="none" 
	d="
M836.491333,393.457916 
	C852.397278,406.158661 856.604736,422.617493 852.963440,441.509247 
	C851.513489,449.032104 846.297668,454.026764 839.512634,457.264130 
	C831.108459,461.273987 822.031799,462.542877 812.882446,463.242065 
	C802.259705,464.053864 791.617737,464.518768 780.953552,464.298035 
	C779.050537,464.258606 776.628540,463.579193 775.565796,465.835175 
	C774.492065,468.114777 776.117737,470.000153 777.409912,471.710846 
	C780.648315,475.998077 784.962708,478.647736 790.215881,479.787781 
	C806.425354,483.305511 822.284180,482.044189 837.846863,476.395538 
	C845.049255,473.781372 846.338623,474.743591 846.186829,482.380737 
	C845.879211,497.857697 839.393982,506.274902 824.495605,510.790314 
	C808.472229,515.646729 792.388428,517.695740 775.855103,513.224182 
	C748.814270,505.910675 728.956909,481.508026 729.120117,453.534210 
	C729.247864,431.622620 734.942932,411.025024 752.139893,395.943390 
	C775.696960,375.283875 810.691650,374.525177 836.491333,393.457916 
M803.189392,433.743652 
	C807.272400,433.497986 810.835022,432.274597 812.237000,427.988708 
	C813.506531,424.108063 811.430908,421.154449 808.806519,418.701172 
	C798.009094,408.607941 776.906677,415.150085 773.607544,429.533539 
	C772.853394,432.821564 773.740479,434.825043 777.412231,434.790985 
	C785.728210,434.713837 794.077942,435.446594 803.189392,433.743652 
z"/>
<path fill="black" opacity="1.000000" stroke="none" 
	d="
M529.020081,380.585144 
	C540.627808,380.321350 551.437439,381.882538 561.729980,386.227173 
	C578.287964,393.216492 586.037109,406.806824 589.039917,423.616394 
	C592.538696,443.202332 591.512451,462.772461 587.376465,482.137451 
	C584.029297,497.809204 574.956543,507.999054 558.751831,511.862366 
	C540.148193,516.297607 521.791260,516.773254 503.591675,510.656342 
	C489.434631,505.898163 478.666870,497.618561 475.278168,481.914124 
	C471.275391,463.363586 479.914734,446.000977 497.288818,438.514130 
	C508.008667,433.894775 519.356140,432.386505 530.871948,431.693909 
	C534.359558,431.484161 537.853455,431.334900 541.331055,431.013641 
	C545.759766,430.604553 547.446045,428.158386 546.318115,423.917389 
	C544.923950,418.675720 540.873901,416.400208 536.062500,415.614868 
	C522.914246,413.468750 509.861664,413.840759 497.068115,417.999817 
	C492.401001,419.517090 488.287079,422.006378 484.578949,425.166077 
	C481.605835,427.699524 479.893707,426.796570 478.841980,423.345062 
	C475.735504,413.150421 481.648224,396.787781 490.508789,390.814362 
	C502.027802,383.048737 515.019104,380.890961 529.020081,380.585144 
M532.413208,483.649414 
	C544.551270,482.006531 548.800171,476.250793 547.124695,464.228577 
	C546.721863,461.338409 545.343811,460.155151 542.753052,459.786621 
	C535.659241,458.777527 528.824341,459.730316 522.426697,462.927551 
	C518.687378,464.796326 517.015686,468.158325 517.018005,472.334167 
	C517.020264,476.423065 519.052063,479.222107 522.575195,481.065033 
	C525.402954,482.544250 528.389893,483.479309 532.413208,483.649414 
z"/>
<path fill="black" opacity="1.000000" stroke="none" 
	d="
M399.535461,413.462738 
	C401.148132,415.326447 401.901703,417.547791 404.850372,418.534149 
	C411.788239,410.828339 419.315857,403.341461 422.745361,392.890381 
	C425.241119,385.284851 427.464142,383.545258 435.374725,383.763763 
	C438.354309,383.846039 441.373718,384.083923 444.287231,384.679779 
	C455.488770,386.970581 460.443359,394.834778 457.840790,406.090424 
	C455.557495,415.965302 449.856476,423.943176 443.361755,431.414673 
	C439.211823,436.188690 434.942200,440.862183 430.622650,445.483948 
	C428.082825,448.201447 427.842926,450.586548 430.060547,453.848663 
	C435.682648,462.118896 441.351685,470.338684 447.781738,478.005524 
	C452.020477,483.059570 456.973602,487.060089 463.385284,489.224731 
	C468.167114,490.839111 469.091187,493.295654 467.493164,498.180878 
	C465.374664,504.657166 461.101074,509.041687 454.562134,510.988525 
	C440.455566,515.188477 427.966553,512.366821 417.163116,502.228851 
	C410.167297,495.663971 405.095001,487.613892 399.572723,479.903564 
	C395.736206,474.546906 395.306396,474.521606 390.947876,479.712372 
	C384.539917,487.343781 379.485199,495.639679 378.144714,505.783051 
	C377.601929,509.890198 374.996216,512.021790 370.964813,511.963470 
	C365.477783,511.884155 359.940613,511.867706 354.522858,511.117249 
	C343.435760,509.581451 338.026367,499.409149 341.455444,486.974731 
	C345.073425,473.855499 353.464935,463.736145 362.505341,454.066132 
	C364.551331,451.877655 366.655853,449.725616 368.898346,447.743347 
	C372.361816,444.681702 372.204987,441.783142 369.413300,438.247711 
	C361.362671,428.052338 353.515015,417.695312 346.822845,406.526611 
	C343.710510,401.332336 341.466736,395.816620 340.765289,389.745728 
	C340.291351,385.643860 341.617096,383.266663 346.234222,383.735382 
	C348.049316,383.919617 349.919434,383.994171 351.724365,383.780243 
	C370.649109,381.537506 384.217407,389.556366 393.799042,405.463470 
	C395.425903,408.164337 397.474731,410.611053 399.535461,413.462738 
z"/>
<path fill="black" opacity="1.000000" stroke="none" 
	d="
M711.313232,471.514771 
	C714.725098,471.499756 715.083313,473.735870 715.172974,475.955872 
	C715.354431,480.446747 715.304871,484.946869 715.480103,489.438080 
	C715.579712,491.989746 713.517639,493.121552 712.351746,494.871826 
	C700.995972,511.919342 684.324524,516.499390 665.268250,514.194641 
	C635.285583,510.568451 614.449585,491.124451 609.166931,462.091522 
	C602.089539,423.194794 623.828003,389.414185 661.735901,382.270782 
	C672.773987,380.190765 683.862610,379.610229 694.680908,383.873505 
	C710.228577,390.000549 718.604370,405.591766 715.068176,421.850250 
	C714.151001,426.066925 711.893921,425.134003 709.196899,423.742249 
	C697.935181,417.930695 686.036621,416.506348 673.786987,419.467560 
	C657.633606,423.372375 649.911926,436.946320 653.719299,454.079865 
	C656.983154,468.767670 665.545166,475.945526 680.667664,476.652985 
	C691.121033,477.141998 701.246704,475.656494 711.313232,471.514771 
z"/>
<path fill="black" opacity="1.000000" stroke="none" 
	d="
M271.889282,494.959534 
	C268.056274,488.261841 266.640991,481.404907 266.671265,474.061157 
	C266.779083,447.920685 266.682404,421.779419 266.700073,395.638458 
	C266.704620,388.860931 267.648438,388.007172 274.550690,387.801483 
	C279.725250,387.647339 284.861481,387.931244 289.973663,388.778198 
	C303.996338,391.101440 310.995270,399.054810 311.150757,413.358978 
	C311.320923,429.008545 311.235016,444.660828 311.281860,460.311859 
	C311.287811,462.306519 311.216522,464.333618 311.530365,466.289642 
	C313.118805,476.189087 316.060120,478.628479 326.149719,478.651123 
	C332.963409,478.666412 334.353912,479.926514 334.895508,486.576477 
	C336.172882,502.260895 327.710968,512.128540 312.115631,513.186340 
	C295.589935,514.307312 281.360687,510.327789 271.889282,494.959534 
z"/>
<path fill="black" opacity="1.000000" stroke="none" 
	d="
M268.783112,369.081787 
	C262.561035,358.645599 263.338654,347.979858 270.593964,340.850708 
	C278.647766,332.936920 291.367767,331.561646 300.925049,337.571350 
	C308.071533,342.065186 313.057953,354.622925 310.436584,361.525055 
	C306.296478,372.426056 295.838470,379.552002 285.864258,378.057037 
	C279.313477,377.075256 273.315369,374.814880 268.783112,369.081787 
z"/>
<path fill="black" opacity="1.000000" stroke="none" 
	d="
M647.236389,593.833252 
	C646.687134,607.898926 640.603882,615.722839 628.676514,617.859802 
	C622.953796,618.885132 617.784546,617.152039 613.200928,613.746155 
	C611.004517,612.114136 610.068298,609.750671 611.091187,607.105530 
	C612.201721,604.233948 614.657288,604.775146 617.046692,605.077332 
	C619.510010,605.388855 622.056641,605.778320 624.480042,605.464233 
	C626.961548,605.142578 629.785095,604.598267 630.504639,601.006897 
	C627.567871,599.680054 624.550842,599.771240 621.658020,599.399597 
	C615.474609,598.605225 609.756592,597.272766 607.630310,590.247559 
	C605.159729,582.084961 607.042175,573.783752 613.006714,569.332581 
	C618.291565,565.388672 624.342468,562.567810 631.075684,563.488403 
	C640.403259,564.763794 646.741333,572.513184 647.201355,582.362854 
	C647.372192,586.020508 647.237854,589.692505 647.236389,593.833252 
M621.884460,584.671997 
	C622.732666,587.335693 624.376709,588.999573 627.346863,588.619507 
	C630.026917,588.276550 631.269287,586.403137 631.728760,583.918945 
	C632.450684,580.016235 630.451355,576.743530 627.182800,576.423584 
	C623.646973,576.077454 621.783081,578.613831 621.884460,584.671997 
z"/>
<path fill="black" opacity="1.000000" stroke="none" 
	d="
M405.931488,602.632812 
	C398.606079,607.130371 393.386444,604.545898 393.081665,596.621582 
	C392.582367,583.639465 392.298462,570.644592 393.149872,557.675171 
	C393.300232,555.384521 392.265015,551.498596 395.953033,551.094543 
	C399.605164,550.694336 403.290344,551.905212 405.524353,555.318604 
	C406.319733,556.533813 407.067932,558.098022 407.031281,559.481567 
	C406.908600,564.115479 409.251190,564.961975 413.318634,564.662476 
	C427.437286,563.622864 432.532104,568.163513 433.246704,582.313660 
	C433.498444,587.297668 433.254242,592.304749 433.364960,597.298462 
	C433.451752,601.214294 432.518250,604.432861 428.020630,604.864990 
	C423.647766,605.285095 420.151764,603.769470 418.549683,599.275818 
	C417.341431,595.886780 417.775574,592.357727 417.683044,588.876038 
	C417.629944,586.878784 417.678070,584.879028 417.634796,582.881348 
	C417.570374,579.908142 417.184479,576.839600 413.504639,576.521912 
	C409.500641,576.176208 407.820068,579.208984 407.488129,582.506714 
	C407.022797,587.129272 407.185394,591.817810 407.142181,596.478760 
	C407.123627,598.480347 407.300140,600.489502 405.931488,602.632812 
z"/>
<path fill="black" opacity="1.000000" stroke="none" 
	d="
M451.076050,565.728760 
	C454.546143,564.264343 457.758453,563.651794 461.155426,563.672913 
	C472.997040,563.746643 479.803253,570.156067 480.230988,582.023621 
	C480.428772,587.510559 480.367004,593.013550 480.213287,598.503479 
	C480.141632,601.062744 481.491608,604.785461 476.962494,604.952087 
	C472.941101,605.099976 468.602325,605.008362 467.063446,600.158936 
	C466.219818,597.500366 466.071777,594.612671 465.699829,591.816345 
	C465.504791,590.350159 465.833679,588.767944 464.742249,587.528625 
	C463.546753,586.171265 462.398376,584.262207 460.379272,584.679382 
	C458.083374,585.153748 458.445679,587.416687 458.290649,589.217590 
	C458.077332,591.694702 457.986420,594.207581 457.480835,596.629517 
	C456.123749,603.131042 451.842621,605.757751 445.432465,604.284973 
	C442.852722,603.692261 441.323151,601.999146 440.862915,599.552246 
	C439.564117,592.647278 439.227570,585.670105 440.080597,578.685059 
	C440.873566,572.192200 445.120605,568.448608 451.076050,565.728760 
z"/>
<path fill="black" opacity="1.000000" stroke="none" 
	d="
M487.714783,589.961792 
	C485.577393,576.092407 492.880615,565.783386 505.751129,564.003723 
	C516.625305,562.500061 527.938110,570.594482 529.265076,580.828064 
	C530.970154,593.978455 524.205933,602.931091 510.241547,606.005798 
	C500.439087,608.164185 491.608673,602.014221 487.714783,589.961792 
M513.630249,589.887695 
	C514.912781,587.046692 515.021912,584.149109 514.076843,581.190125 
	C513.044006,577.956238 510.910034,576.114075 507.452911,576.440796 
	C504.115509,576.756226 502.667267,579.097595 502.318451,582.177185 
	C502.152100,583.645996 502.194214,585.151245 502.276031,586.632568 
	C502.432068,589.457092 503.406586,591.860352 506.339539,592.823608 
	C509.152954,593.747498 511.547729,593.048096 513.630249,589.887695 
z"/>
<path fill="black" opacity="1.000000" stroke="none" 
	d="
M578.638367,605.358398 
	C567.135864,603.699951 560.525513,595.918762 560.721802,584.730530 
	C560.924438,573.174255 568.019836,565.326172 579.537170,563.919006 
	C590.071838,562.631897 599.836853,569.461548 602.324829,579.856812 
	C604.821899,590.289856 599.670227,600.319397 589.875183,604.205566 
	C586.356079,605.601746 582.707336,605.469360 578.638367,605.358398 
M575.464966,587.812561 
	C575.621460,588.281311 575.747498,588.762878 575.939148,589.216797 
	C577.554321,593.044067 580.591125,593.732849 584.107849,592.516663 
	C587.596497,591.310181 589.138977,584.783325 587.180237,580.197205 
	C585.804138,576.975464 583.218384,575.822632 579.926392,576.587952 
	C577.644104,577.118469 576.269226,578.958374 575.784668,581.126587 
	C575.360596,583.024414 575.491882,585.046326 575.464966,587.812561 
z"/>
<path fill="black" opacity="1.000000" stroke="none" 
	d="
M700.874634,594.631958 
	C704.095642,594.720032 706.933411,594.964844 709.713623,594.200317 
	C711.772766,593.634094 713.838684,593.449829 714.853516,595.796143 
	C715.777588,597.932556 715.405151,600.045959 713.763672,601.820007 
	C713.539062,602.062744 713.271912,602.267517 713.015503,602.479126 
	C704.899170,609.178345 687.258606,605.317810 682.656982,595.836365 
	C674.877563,579.807190 685.304626,562.618530 702.188538,563.747925 
	C707.546814,564.106384 712.242554,566.301208 715.753296,570.382080 
	C721.738220,577.338989 718.609558,586.916199 709.751648,588.995117 
	C707.177185,589.599365 704.553284,590.103943 701.839722,589.612732 
	C700.093201,589.296570 698.270020,589.631714 697.801331,591.606567 
	C697.352112,593.499207 699.039551,594.065369 700.874634,594.631958 
M698.252380,575.437622 
	C696.542236,576.312195 694.548950,577.396240 696.914856,579.297729 
	C698.304871,580.414917 700.444092,579.991455 702.190674,579.301880 
	C703.228333,578.892212 703.791565,577.959656 703.278992,576.896912 
	C702.392761,575.059631 700.664307,575.129333 698.252380,575.437622 
z"/>
<path fill="black" opacity="1.000000" stroke="none" 
	d="
M349.925751,574.788818 
	C351.008453,585.385010 347.499237,589.281799 337.255066,589.400879 
	C335.758270,589.418274 334.260498,589.377014 332.764252,589.410889 
	C331.180634,589.446655 329.597656,589.737549 329.542725,591.710632 
	C329.493530,593.478027 330.771240,594.429749 332.386658,594.635498 
	C335.199707,594.993713 338.038696,595.009949 340.813599,594.306763 
	C343.161163,593.711914 345.613953,593.057922 346.787018,595.964539 
	C348.036072,599.059326 346.850739,601.690430 343.988953,603.104858 
	C336.526764,606.793152 328.906921,606.995605 321.548706,602.884399 
	C314.458313,598.922791 311.447449,592.493774 311.818939,584.548340 
	C312.320557,573.820190 317.886200,566.296082 326.424194,564.376709 
	C336.091034,562.203552 345.209442,566.117188 349.925751,574.788818 
M327.772491,577.711182 
	C329.235474,581.394653 332.035797,579.725281 334.338318,579.145020 
	C335.572632,578.833923 335.937592,577.301819 334.902283,576.343811 
	C332.924530,574.513794 330.739075,574.881836 328.663605,576.342224 
	C328.406494,576.523132 328.241119,576.834351 327.772491,577.711182 
z"/>
<path fill="black" opacity="1.000000" stroke="none" 
	d="
M284.644897,593.955688 
	C284.721069,587.185303 283.815308,580.921875 284.427216,574.559143 
	C284.911804,569.520386 282.494354,567.481934 277.149506,567.338257 
	C273.860168,567.249756 270.991943,566.778992 270.779877,562.745911 
	C270.578247,558.910889 272.315186,556.410706 276.274200,555.667358 
	C286.851929,553.681335 297.504089,554.816040 308.127563,554.914856 
	C310.236023,554.934509 311.972229,556.010193 312.580261,558.267944 
	C313.265076,560.810547 312.181335,562.815186 310.505219,564.574402 
	C309.193268,565.951416 307.462738,566.841248 305.649567,566.921997 
	C299.498169,567.195801 298.458740,571.272339 298.429047,576.188599 
	C298.388824,582.845093 298.394073,589.501953 298.366364,596.158630 
	C298.350220,600.044434 298.692719,604.274353 293.156097,604.656067 
	C287.897675,605.018616 284.999084,601.915283 284.666473,595.915710 
	C284.638855,595.417725 284.652435,594.917419 284.644897,593.955688 
z"/>
<path fill="black" opacity="1.000000" stroke="none" 
	d="
M722.762268,577.145447 
	C722.608765,564.720032 743.832886,559.708130 751.946472,567.442871 
	C753.936646,569.340149 755.062927,571.525085 753.799133,574.120728 
	C752.605957,576.571289 750.321899,576.159241 748.100525,575.673035 
	C746.152588,575.246765 744.163757,575.002747 742.188904,574.704895 
	C740.473755,574.446228 739.063660,575.072510 738.751892,576.788330 
	C738.449829,578.451294 739.963379,579.148193 741.242920,579.385437 
	C743.704163,579.841797 746.115845,580.291382 748.416565,581.383545 
	C752.468384,583.307007 755.163025,586.008118 755.380737,590.831238 
	C755.611511,595.943787 754.035889,600.111938 749.550049,602.691406 
	C743.067688,606.418945 736.157043,606.206482 729.254272,604.043640 
	C727.167480,603.389832 725.579834,601.794067 724.510681,599.805298 
	C723.674255,598.249634 723.412598,596.605835 724.255798,595.023193 
	C725.216248,593.220215 726.953125,593.348389 728.656799,593.595886 
	C731.123535,593.954041 733.580933,594.410950 736.059448,594.642639 
	C737.607483,594.787415 739.263428,594.461914 739.467896,592.542725 
	C739.647400,590.857849 738.174927,590.426514 736.855103,590.057617 
	C735.093811,589.565369 733.320251,589.112732 731.574158,588.571411 
	C725.107117,586.566345 723.341187,584.347839 722.762268,577.145447 
z"/>
<path fill="black" opacity="1.000000" stroke="none" 
	d="
M373.933289,606.346924 
	C364.170044,605.241211 357.926300,599.812500 354.309235,591.567688 
	C350.835419,583.649353 353.993988,576.447144 358.677094,570.121460 
	C363.287506,563.893921 376.426422,562.057739 383.061676,566.171753 
	C386.107758,568.060425 388.282623,570.573303 387.258026,574.409424 
	C386.156372,578.534119 382.735107,577.493530 379.816193,577.278015 
	C372.435120,576.733154 369.802856,578.386353 369.362396,583.921021 
	C368.861359,590.216797 372.874634,593.560120 380.033569,592.976440 
	C382.455353,592.778992 385.597321,590.720581 386.953766,594.466858 
	C388.244171,598.030701 385.936676,600.495117 383.401703,602.561829 
	C380.783173,604.696655 377.884277,606.300842 373.933289,606.346924 
z"/>
<path fill="black" opacity="1.000000" stroke="none" 
	d="
M534.081238,558.487183 
	C534.449951,554.159607 535.627563,551.246948 540.427612,551.591125 
	C545.170776,551.931213 548.022461,554.502563 548.283752,559.504700 
	C548.742920,568.293701 548.050598,577.109497 548.929626,585.901428 
	C549.266663,589.272461 550.011169,592.071899 553.532227,593.423218 
	C555.772705,594.283081 557.015076,596.054321 556.796570,598.476562 
	C556.557861,601.123413 555.232910,603.101929 552.686951,604.253174 
	C546.238525,607.169067 538.075317,603.603699 535.643433,596.635620 
	C534.318420,592.838989 533.960388,588.819519 533.909668,584.852234 
	C533.799133,576.215942 533.983643,567.575867 534.081238,558.487183 
z"/>

<path fill="black" opacity="1.000000" stroke="none" 
	d="
M669.062012,583.807617 
	C669.095947,588.426819 670.271362,592.037842 673.511658,594.954590 
	C676.889709,597.995483 676.231506,601.604675 672.106567,603.965515 
	C667.064026,606.851501 658.994507,604.327820 656.127075,598.913879 
	C654.362976,595.583069 653.936890,591.958252 654.071594,588.249084 
	C654.258667,583.095032 654.513550,577.943176 654.660400,572.788086 
	C654.740784,569.966003 655.047302,567.260010 658.456177,566.687866 
	C662.180542,566.062683 665.608704,566.796387 667.250916,570.634277 
	C668.974854,574.663330 669.424988,578.978149 669.062012,583.807617 
z"/>
<path fill="black" opacity="1.000000" stroke="none" 
	d="
M666.966431,559.768188 
	C662.249756,565.493713 655.652039,562.367371 654.914185,558.351562 
	C654.391174,555.504822 654.289490,552.554504 657.135559,550.788696 
	C659.860474,549.098083 662.954346,548.941162 665.507996,550.980469 
	C668.252991,553.172485 668.833801,556.181335 666.966431,559.768188 
z"/>

</svg>